<?xml version="1.0" encoding="utf-8"?>
<!-- Generator: Adobe Illustrator 28.0.0, SVG Export Plug-In . SVG Version: 6.00 Build 0)  -->
<svg version="1.1" id="Layer_1" xmlns="http://www.w3.org/2000/svg" xmlns:xlink="http://www.w3.org/1999/xlink" x="0px" y="0px"
	 viewBox="0 0 192 212.4" style="enable-background:new 0 0 192 212.4;" xml:space="preserve">
<style type="text/css">
	.st0{fill:#FFFFFF;}
	.st1{fill:#AC1F2D;}
	.st2{fill:none;stroke:#000000;stroke-width:0.25;stroke-miterlimit:10;}
</style>
<g>
	<rect x="4.9" y="104.7" class="st0" width="24.5" height="6"/>
	<path class="st0" d="M56,82.2L29.5,40.5h-0.1v70h-6.7V32.8V15.6l33.4,52h0.1l33.1-50.2v15.3l0.1,67.4h-6.7l-0.1-59.7h-0.1"/>
	<path class="st0" d="M121.1,126.5L121.1,126.5l-0.1,66.6h-6.6v-75.5v-12.9l48,74.4h0.1V105h6.6v83v11.6L121.1,126.5z"/>
	<polyline class="st0" points="187.4,110.2 162.5,110.2 162.5,104.7 187.4,104.7 	"/>
	<path class="st1" d="M100.2,107.2"/>
	<path class="st1" d="M129.8,129.5"/>
	<path class="st0" d="M64.6,104.7h43.9v5.7H89.9v65.2h-6.7v-65.2H64.6V104.7z"/>
	<path class="st2" d="M83.2,110.5"/>
	<path class="st2" d="M64.6,110.5"/>
</g>
</svg>
