<?xml version="1.0" encoding="utf-8"?>
<!-- Generator: Adobe Illustrator 28.1.0, SVG Export Plug-In . SVG Version: 6.00 Build 0)  -->
<svg version="1.1" id="Layer_1" xmlns="http://www.w3.org/2000/svg" xmlns:xlink="http://www.w3.org/1999/xlink" x="0px" y="0px"
	 viewBox="0 0 252.8 135.6" style="enable-background:new 0 0 252.8 135.6;" xml:space="preserve">
<style type="text/css">
	.st0{fill:#AC212D;}
	.st1{fill:none;stroke:#010101;stroke-width:0.25;stroke-miterlimit:10;}
</style>
<rect y="65.2" class="st0" width="77.7" height="4.4"/>
<path class="st0" d="M97.2,48.7L77.8,18.2h-0.1v51.2h-4.9V12.6V0l24.4,38h0.1l24.2-36.7v11.2l0.1,49.3h-4.9l-0.1-43.7h-0.1"/>
<path class="st0" d="M144.8,81.1L144.8,81.1l-0.1,48.7h-4.8V74.6v-9.4l35.1,54.4h0.1V65.4h4.8v60.7v8.5L144.8,81.1z"/>
<polyline class="st0" points="252.8,69.2 175.1,69.2 175.1,65.2 252.8,65.2 "/>
<path class="st0" d="M129.5,67"/>
<path class="st0" d="M151.2,83.3"/>
<path class="st0" d="M103.5,65.2h32.1v4.2H122v47.7h-4.9V69.4h-13.6V65.2z"/>
<path class="st1" d="M117.1,69.4"/>
<path class="st1" d="M103.5,69.4"/>
</svg>
